<svg width="32" height="32" viewBox="0 0 32 32" fill="none" xmlns="http://www.w3.org/2000/svg">
<g clip-path="url(#clip0_2071_1454)">
<path d="M4.08258 15.2724C5.81919 14.6775 7.5558 14.0815 9.2924 13.4843C9.33987 13.4572 9.38389 13.4245 9.42349 13.3868C9.16216 12.4053 8.8664 11.4214 8.64372 10.4206C8.39835 9.32231 8.12608 8.21648 8.03365 7.09973C7.83029 4.64439 9.01009 2.95624 11.2066 1.97394C12.2301 1.51598 13.2771 1.05634 14.4527 1.16305L14.7266 1.63362L14.3518 1.65127C14.2955 1.58488 14.2039 1.45296 14.1838 1.46136C14.0705 1.52988 13.9631 1.60774 13.8628 1.69412V1.73277C13.0721 1.99999 12.2561 2.2109 11.4957 2.54534C9.28234 3.51756 8.28489 5.22503 8.67983 7.5745C8.99746 9.46348 9.49574 11.3222 9.92681 13.2549L21.2028 9.36853C20.7389 7.92574 20.2717 6.5401 19.8473 5.14101C19.2339 3.11758 17.9147 1.93528 15.8139 1.65883L15.7392 1.16137C17.6407 1.06558 18.944 2.03108 19.8473 3.58646C20.212 4.215 20.4221 4.93933 20.6574 5.63594C21.0086 6.67706 21.3179 7.73247 21.6473 8.78116C21.68 8.88536 21.7245 8.98535 21.7817 9.13576L26.3621 7.5703V9.40466L26.0798 9.25845L26.0084 9.34248L26.4008 9.82733L26.4386 10.2408C26.3552 10.1786 26.2797 10.1066 26.2134 10.0265C26.1033 9.85842 26.0235 9.67607 25.7664 9.82312C25.5487 9.94749 25.2807 10.0315 25.3857 10.3668C25.463 10.613 25.6202 10.7869 25.9075 10.7382C26.0454 10.7047 26.1806 10.6606 26.3117 10.6063L26.3764 10.7382L25.8034 11.0054C26.0597 11.2945 26.3117 10.9575 26.5546 11.0054L27.7268 15.7951L27.6932 15.8472C27.2629 15.259 26.7907 14.6993 26.41 14.0826C25.6729 12.8663 25.1278 11.5435 24.7941 10.1609C24.7387 9.93992 24.6732 9.83741 24.4312 9.92648C23.7404 10.1786 23.0463 10.4206 22.2766 10.6937C22.4119 11.0298 22.538 11.3399 22.6649 11.6516C22.6968 11.7667 22.7295 11.8827 22.7615 11.9986L22.0052 11.9146L21.9447 11.8398L21.6766 10.9079C21.1162 11.1046 20.596 11.2852 20.0801 11.4693C17.022 12.5583 13.965 13.6507 10.9091 14.7464C10.7571 14.8019 10.51 15.0044 10.5285 15.0531C10.6293 15.3161 10.4991 15.7094 10.9822 15.785C11.6477 15.8892 12.0469 16.6119 11.8587 17.2564C11.7692 17.5535 11.5659 17.8032 11.2931 17.9511C11.0204 18.099 10.7003 18.1332 10.4024 18.0462C9.65793 17.816 9.32267 16.916 9.74702 16.2816C10.0941 15.7615 10.0966 15.7304 9.80499 15.1212L6.61269 16.2589C6.72109 16.4598 6.80596 16.6278 6.90175 16.7892C8.34454 19.221 9.41845 21.7956 9.90498 24.593C10.2999 26.8618 10.3058 29.1188 9.61006 31.3422C9.58905 31.4086 9.55544 31.4699 9.52603 31.5338H9.36466C9.51507 27.2643 8.24203 23.3418 6.39171 19.5764C5.74216 18.2538 4.96322 16.9967 4.23636 15.7111C4.19057 15.6457 4.13821 15.5851 4.08008 15.5304L4.08258 15.2724ZM10.6881 16.3984C10.4007 16.4304 10.215 16.6043 10.2167 16.9093C10.2167 17.1917 10.3772 17.3799 10.6814 17.3875C10.9991 17.3959 11.1906 17.2194 11.1948 16.9144C11.199 16.6093 11.0251 16.427 10.6881 16.3984Z" fill="#8D2925"/>
<path d="M23.6186 12.2432C23.9034 12.8221 23.7807 13.386 23.2908 13.7557C22.827 14.1069 22.2371 14.0414 21.7539 13.5876L21.748 13.3481L21.9203 13.175L22.1581 13.0994C22.6715 13.4355 22.9732 13.3271 23.0984 12.7633C23.1732 12.6978 23.3219 12.6087 23.3101 12.5717C23.2051 12.2465 23.4337 12.2726 23.6186 12.2432Z" fill="#8D2925"/>
<path d="M26.5508 11.0087C26.3079 10.9625 26.0559 11.2994 25.7996 11.0087L26.3726 10.7415L26.3079 10.6096C26.1768 10.6638 26.0417 10.7079 25.9037 10.7415C25.6164 10.7894 25.4592 10.6163 25.3819 10.3701C25.2769 10.034 25.545 9.94993 25.7626 9.8264C26.0197 9.67935 26.0987 9.86169 26.2096 10.0298C26.2759 10.1099 26.3515 10.1818 26.4348 10.244L26.5508 11.0087ZM25.8264 9.88102C25.7138 10.0634 25.5971 10.1692 25.6139 10.2457C25.6399 10.3659 25.7567 10.4675 25.8349 10.5768C25.9231 10.4928 26.0869 10.4087 26.0827 10.3247C26.0752 10.2045 25.9542 10.0894 25.8264 9.88102Z" fill="#8D2925"/>
<path d="M15.7361 1.16393C15.7613 1.33199 15.7862 1.4978 15.8109 1.66138L14.7261 1.63365L14.4521 1.16309L15.7361 1.16393Z" fill="#8D2925"/>
<path d="M21.9208 13.1742L21.7486 13.3473H21.5847C21.2923 12.7591 21.3948 12.3306 21.9435 11.8457L22.004 11.9205C21.8906 12.1852 21.6477 12.4633 22.0746 12.6768L22.0804 12.9288C21.8426 12.8902 21.8922 13.0389 21.9208 13.1742Z" fill="#8D2925"/>
<path d="M23.6191 12.244C23.4368 12.2734 23.2056 12.244 23.3107 12.5692C23.3224 12.6061 23.1737 12.6952 23.0989 12.7608L22.9149 12.4297L22.7578 12.0036C22.7259 11.8877 22.6931 11.7717 22.6611 11.6566C22.8695 11.6373 23.0292 11.6499 23.1502 11.8902C23.2309 12.0465 23.4586 12.128 23.6191 12.244Z" fill="#8D2925"/>
<path d="M26.3983 9.83158L26.0059 9.34672L26.0773 9.2627L26.3596 9.40891C26.3756 9.54839 26.3857 9.69041 26.3983 9.83158Z" fill="#8D2925"/>
<path d="M9.3673 31.5283H9.52863C9.50006 31.6594 9.47149 31.7897 9.4446 31.9207L9.34375 31.9157L9.3673 31.5283Z" fill="#B65754"/>
<path d="M21.585 13.3447H21.7488C21.7488 13.4246 21.753 13.5044 21.7547 13.5842L21.585 13.3447Z" fill="#8D2925"/>
<path d="M22.0738 12.6762C21.6469 12.4619 21.8897 12.1838 22.0032 11.9199L22.7595 12.004L22.7519 12.3468C22.425 12.2594 22.2301 12.4233 22.0738 12.6762Z" fill="#8D2925"/>
<path d="M14.3504 1.65091L13.8613 1.69629C13.9617 1.60991 14.0691 1.53205 14.1823 1.46353C14.2025 1.45261 14.2941 1.58453 14.3504 1.65091Z" fill="#8D2925"/>
<path d="M13.8643 1.69381L14.3533 1.64844L13.8668 1.73247L13.8643 1.69381Z" fill="#8D2925"/>
<path d="M22.0803 12.9274L22.1584 13.0954L21.9206 13.1711C21.8929 13.04 21.8433 12.8912 22.0803 12.9274Z" fill="#8D2925"/>
<path d="M25.8265 9.88184C25.9542 10.0902 26.0786 10.2053 26.0828 10.3289C26.0878 10.4062 25.9231 10.4969 25.8349 10.581C25.7568 10.4717 25.64 10.37 25.6139 10.2499C25.5971 10.1701 25.7139 10.0642 25.8265 9.88184Z" fill="#8D2925"/>
<path d="M22.9145 12.4287C22.8884 12.4304 22.8623 12.4252 22.8389 12.4136L22.749 12.3438L22.7566 12.001L22.9145 12.4287Z" fill="#8D2925"/>
</g>
<defs>
<clipPath id="clip0_2071_1454">
<rect width="23.64" height="30.7783" fill="white" transform="translate(4.08301 1.14648)"/>
</clipPath>
</defs>
</svg>
